HIERARCHY
ROOT Hips
{
	OFFSET 0.00000 0.00000 0.00000
	CHANNELS 6 Xposition Yposition Zposition Zrotation Yrotation Xrotation 
	JOINT LHipJoint
	{
		OFFSET 0 0 0
		CHANNELS 3 Zrotation Yrotation Xrotation
		JOINT LeftHip
		{
			OFFSET 1.26600 -1.82114 0.91038
			CHANNELS 3 Zrotation Yrotation Xrotation
			JOINT LeftKnee
			{
				OFFSET 2.50076 -6.87080 0.00000
				CHANNELS 3 Zrotation Yrotation Xrotation
				JOINT LeftAnkle
				{
					OFFSET 2.57364 -7.07102 0.00000
					CHANNELS 3 Zrotation Yrotation Xrotation
					JOINT LeftToe
					{
						OFFSET 0.13572 -0.37290 1.97004
						CHANNELS 3 Zrotation Yrotation Xrotation
						End Site
						{
							OFFSET 0.00000 -0.00000 1.01383
						}
					}
				}
			}
		}
	}
	JOINT RHipJoint
	{
		OFFSET 0 0 0
		CHANNELS 3 Zrotation Yrotation Xrotation
		JOINT RightHip
		{
			OFFSET -1.20803 -1.82114 0.91038
			CHANNELS 3 Zrotation Yrotation Xrotation
			JOINT RightKnee
			{
				OFFSET -2.54916 -7.00377 0.00000
				CHANNELS 3 Zrotation Yrotation Xrotation
				JOINT RightAnkle
				{
					OFFSET -2.56374 -7.04382 0.00000
					CHANNELS 3 Zrotation Yrotation Xrotation
					JOINT RightToe
					{
						OFFSET -0.23520 -0.64621 2.09921
						CHANNELS 3 Zrotation Yrotation Xrotation
						End Site
						{
							OFFSET -0.00000 -0.00000 1.10065
						}
					}
				}
			}
		}
	}
	JOINT lowerback
	{
		OFFSET 0 0 0
		CHANNELS 3 Zrotation Yrotation Xrotation
		JOINT Chest
		{
			OFFSET 0.05492 2.10797 -0.12074
			CHANNELS 3 Zrotation Yrotation Xrotation
			JOINT Chest2
			{
				OFFSET 0.04577 2.11592 -0.04483
				CHANNELS 3 Zrotation Yrotation Xrotation
				JOINT lowerneck
				{
					OFFSET 0 0 0
					CHANNELS 3 Zrotation Yrotation Xrotation
					JOINT Neck
					{
						OFFSET -0.10759 1.80167 0.15770
						CHANNELS 3 Zrotation Yrotation Xrotation
						JOINT Head
						{
							OFFSET 0.09237 1.77509 -0.40848
							CHANNELS 3 Zrotation Yrotation Xrotation
							End Site
							{
								OFFSET 0.03805 1.84093 -0.15754
							}
						}
					}
				}
				JOINT LeftCollar
				{
					OFFSET 0 0 0
					CHANNELS 3 Zrotation Yrotation Xrotation
					JOINT LeftShoulder
					{
						OFFSET 3.42372 1.09575 -0.28209
CHANNELS 3 Zrotation Xrotation Yrotation
						JOINT LeftElbow
						{
OFFSET 0 -4.956810 0.000000
CHANNELS 3 Zrotation Xrotation Yrotation
							JOINT LeftWrist
							{
OFFSET 0 -3.409150 0.000000
CHANNELS 3 Zrotation Xrotation Yrotation
								JOINT lhand
								{
									OFFSET 0 0 0
CHANNELS 3 Zrotation Xrotation Yrotation
									JOINT LFingers
									{
OFFSET 0 -0.616400 0.000000
CHANNELS 3 Zrotation Xrotation Yrotation
										End Site
										{
OFFSET 0 -0.496960 0.000000
										}
									}
								}
								JOINT LThumb
								{
OFFSET 0 0.000000 0.000000
CHANNELS 3 Zrotation Xrotation Yrotation
									End Site
									{
OFFSET 0 -0.504550 0.504550
									}
								}
							}
						}
					}
				}
				JOINT RightCollar
				{
					OFFSET 0 0 0
					CHANNELS 3 Zrotation Yrotation Xrotation
					JOINT RightShoulder
					{
						OFFSET -3.24731 1.15872 -0.32221
CHANNELS 3 Zrotation Xrotation Yrotation
						JOINT RightElbow
						{
OFFSET 0 -5.352000 0.000000
CHANNELS 3 Zrotation Xrotation Yrotation
							JOINT RightWrist
							{
OFFSET 0 -3.437210 -0.000000
CHANNELS 3 Zrotation Xrotation Yrotation
								JOINT rhand
								{
									OFFSET 0 0 0
CHANNELS 3 Zrotation Xrotation Yrotation
									JOINT RFingers
									{
OFFSET 0 -0.720090 0.000000
CHANNELS 3 Zrotation Xrotation Yrotation
										End Site
										{
OFFSET 0 -0.580560 0.000000
										}
									}
								}
								JOINT RThumb
								{
OFFSET 0 0.000000 0.000000
CHANNELS 3 Zrotation Xrotation Yrotation
									End Site
									{
OFFSET 0 -0.589420 0.589420
									}
								}
							}
						}
					}
				}
			}
		}
	}
}
MOTION
Frames: 4
Frame Time: 0.008333333333333333
18.624568 20.307869 -12.799673 -186.994466 -188.040299 539.738643 0.000000 0.000000 0.000000 -6.791967 -11.362671 -18.654527 6.035120 14.462293 45.122640 0.753074 -8.656125 -15.724081 0.024761 -1.013742 -2.786788 0.000000 0.000000 0.000000 30.306236 -5.453749 -13.503197 -3.532427 -11.510708 34.022349 -1.629959 3.961452 -23.187760 -0.415660 -4.138442 11.466575 6.596463 1.151906 7.431292 3.867953 2.076615 2.787102 0.130424 1.053652 -1.185588 -9.564898 -2.870633 -10.649398 5.592735 -3.663408 40.131850 3.633157 -2.145575 16.538797 0.000000 0.000000 0.000000 1.276141 6.434323 -24.155164 20.531668 -31.277571 5.804890 22.191035 1.905736 -18.239802 0.000000 0.000000 0.000000 -7.125000 0.000000 0.000000 -5.828992 49.482369 0.646689 0.000000 0.000000 0.000000 -5.727734 -0.879977 17.792707 -18.641348 -28.970588 -4.855895 -20.694128 -16.262214 -10.169854 0.000000 0.000000 0.000000 7.125000 0.000000 0.000000 4.485609 19.142692 2.775059
18.787701 20.324254 -12.796211 -186.970090 -183.866249 540.045770 0.000000 0.000000 0.000000 -6.454333 -12.275130 -16.850289 5.647101 14.077258 43.548241 0.453148 -15.095066 -15.031906 0.045975 -1.378178 -3.790114 0.000000 0.000000 0.000000 29.504248 -4.221610 -12.860273 -3.479689 -11.433852 33.757346 -1.510148 6.004464 -22.052188 -0.287622 -3.448878 9.531066 6.943362 1.196109 7.260813 3.800603 2.142920 2.658906 -0.133616 1.082678 -1.203957 -9.610292 -2.447911 -10.708265 5.638952 -3.106066 40.686189 3.774356 -1.952716 16.790787 0.000000 0.000000 0.000000 0.935428 6.981497 -26.332645 20.466583 -31.200375 5.771113 21.433739 1.969114 -13.930369 0.000000 0.000000 0.000000 -7.125000 0.000000 0.000000 -5.576739 44.827458 -0.023100 0.000000 0.000000 0.000000 -5.933292 0.010752 18.732786 -18.598776 -28.917083 -4.835302 -22.977345 -17.117265 -9.259998 0.000000 0.000000 0.000000 7.125000 0.000000 0.000000 2.839095 19.941236 1.697699
18.960778 20.327582 -12.733659 -186.883038 -179.908402 540.484038 0.000000 0.000000 0.000000 -6.856401 -10.864121 -15.124050 5.111832 13.508618 41.303643 0.446362 -14.920654 -14.888684 0.099289 -2.031614 -5.593018 0.000000 0.000000 0.000000 28.525033 -2.932304 -12.280132 -3.476824 -11.429552 33.742625 -1.386241 8.544928 -21.079091 -0.333300 -3.710168 10.262637 6.899830 1.221494 6.576424 3.948794 2.112929 2.495938 0.061522 1.067226 -1.001324 -10.292674 -2.277844 -10.785994 5.485611 -2.664761 40.851764 3.902204 -1.926144 16.869463 0.000000 0.000000 0.000000 0.219482 8.282797 -27.268291 20.991665 -31.818509 6.045552 21.533127 2.652302 -16.976230 0.000000 0.000000 0.000000 -7.125000 0.000000 0.000000 -6.144299 48.053116 0.463136 0.000000 0.000000 0.000000 -6.698324 0.521225 19.074642 -18.378578 -28.639197 -4.729297 -20.553479 -16.878085 -7.316863 0.000000 0.000000 0.000000 7.125000 0.000000 0.000000 4.558816 22.180216 2.508603
19.124506 20.302862 -12.667083 -186.714543 -178.037694 540.811252 0.000000 0.000000 0.000000 -7.742767 -8.590747 -13.990648 4.669335 13.001492 39.374024 0.611318 -15.208590 -16.427759 0.042758 -1.334793 -3.670558 0.000000 0.000000 0.000000 27.633353 -1.836773 -12.095915 -3.585214 -11.586964 34.286140 -1.428388 9.440826 -21.446048 -0.320897 -3.641358 10.069707 6.725224 1.040739 5.669792 3.917651 1.767419 2.511966 0.170137 0.906211 -0.501062 -9.173279 -1.875251 -11.257577 4.465735 -1.955981 40.524659 3.333168 -1.596930 16.682177 0.000000 0.000000 0.000000 0.047264 7.954831 -27.649588 20.111090 -30.775923 5.588106 21.006505 0.465849 -15.026356 0.000000 0.000000 0.000000 -7.125000 0.000000 0.000000 -6.195737 45.929501 0.144095 0.000000 0.000000 0.000000 -6.555267 0.596886 18.322328 -18.605151 -28.925093 -4.838367 -20.288123 -13.997506 -4.959196 0.000000 0.000000 0.000000 7.125000 0.000000 0.000000 4.773675 24.694748 2.350466
